<?xml version="1.0" standalone="no"?><!DOCTYPE svg PUBLIC "-//W3C//DTD SVG 1.1//EN" "http://www.w3.org/Graphics/SVG/1.1/DTD/svg11.dtd"><svg t="1652955079971" class="icon" viewBox="0 0 1024 1024" version="1.1" xmlns="http://www.w3.org/2000/svg" p-id="3866" width="200" height="200" xmlns:xlink="http://www.w3.org/1999/xlink"><defs><style type="text/css">@font-face { font-family: feedback-iconfont; src: url("//at.alicdn.com/t/font_1031158_u69w8yhxdu.woff2?t=1630033759944") format("woff2"), url("//at.alicdn.com/t/font_1031158_u69w8yhxdu.woff?t=1630033759944") format("woff"), url("//at.alicdn.com/t/font_1031158_u69w8yhxdu.ttf?t=1630033759944") format("truetype"); }
</style></defs><path d="M358.3 576m-240.4 0a240.4 240.4 0 1 0 480.8 0 240.4 240.4 0 1 0-480.8 0Z" fill="#d81e06" opacity=".3" p-id="3867"></path><path d="M883.1 552.8H325.8c-23.9 0-43.4-19.3-43.4-43v-311c0-11 9-20 20-20h3.2c1.3 0 2.6 0.1 3.9 0.4l33.1 6.5 549.1 108.8c20.3 3.9 35 21.7 35 42.2v173.1c-0.1 23.7-19.6 43-43.6 43zM322.3 222.5v287.3c0 1.6 1.6 3 3.4 3H883c1.9 0 3.5-1.4 3.5-3V336.6c0-1.4-1.1-2.6-2.6-2.9h-0.1l-549-108.8-12.5-2.4z" fill="#d81e06" p-id="3868"></path><path d="M302.3 625.1c-11 0-20-9-20-20v-95.3c0-11 9-20 20-20s20 9 20 20v95.3c0 11-8.9 20-20 20z" fill="#d81e06" p-id="3869"></path><path d="M302.3 626.4c-11 0-19.9-8.9-20-19.9-0.1-11 8.9-20 19.9-20.1l604.3-2.8h0.1c11 0 19.9 8.9 20 19.9 0.1 11-8.9 20-19.9 20.1l-604.4 2.8zM305.5 218.7c-1.6 0-3.1-0.2-4.7-0.6l-41-9.9c-10.7-2.6-17.3-13.4-14.8-24.1 2.6-10.7 13.4-17.3 24.1-14.8l41 9.9c10.7 2.6 17.3 13.4 14.8 24.1a19.92 19.92 0 0 1-19.4 15.4z" fill="#d81e06" p-id="3870"></path><path d="M264.5 208.8h-0.4l-68-1.4c-11-0.2-19.8-9.4-19.6-20.4 0.2-10.9 9.1-19.6 20-19.6h0.4l68 1.4c11 0.2 19.8 9.4 19.6 20.4-0.3 10.9-9.2 19.6-20 19.6zM416.2 761.9c-37.7 0-68.3-30.6-68.3-68.3 0-37.7 30.6-68.3 68.3-68.3 37.7 0 68.3 30.6 68.3 68.3 0 37.6-30.6 68.3-68.3 68.3z m0-96.6c-15.6 0-28.3 12.7-28.3 28.3 0 15.6 12.7 28.3 28.3 28.3 15.6 0 28.3-12.7 28.3-28.3 0-15.6-12.7-28.3-28.3-28.3zM769.4 760.9c-3.4 0-6.8-0.2-10.2-0.8-37.2-5.6-63-40.4-57.4-77.7 2.7-18 12.3-33.9 27-44.8 14.7-10.8 32.7-15.3 50.7-12.6 18 2.7 33.9 12.3 44.8 27 10.8 14.7 15.3 32.7 12.6 50.7-5.1 33.8-34.3 58.2-67.5 58.2z m-0.1-96.6c-6 0-11.8 1.9-16.8 5.5-6.1 4.5-10 11.1-11.2 18.6-2.3 15.4 8.3 29.9 23.8 32.2 15.4 2.3 29.9-8.3 32.2-23.8 2.3-15.4-8.3-29.9-23.8-32.2-1.3-0.2-2.8-0.3-4.2-0.3z m47.8 35.5z" fill="#d81e06" p-id="3871"></path></svg>